<?xml version="1.0" encoding="utf-8"?>
<!-- Generator: Adobe Illustrator 22.1.0, SVG Export Plug-In . SVG Version: 6.00 Build 0)  -->
<svg version="1.1" id="Layer_1" xmlns="http://www.w3.org/2000/svg" xmlns:xlink="http://www.w3.org/1999/xlink" x="0px" y="0px"
	 viewBox="0 0 792 612" style="enable-background:new 0 0 792 612;" xml:space="preserve">
<style type="text/css">
	.st0{fill:#FFFFFF;}
	.st1{fill:none;stroke:#FFFFFF;stroke-miterlimit:10;}
	.st2{fill:none;stroke:#989898;stroke-miterlimit:10;}
</style>
<g>
	<g>
		
			<image style="overflow:visible;opacity:0.33;" width="766" height="972" xlink:href="4C01E3AE9422A3D7.png"  transform="matrix(0.24 0 0 0.24 672.0742 -58.0626)">
		</image>
		<g>
			<path class="st0" d="M828.3,126.6c0,3.8-3.1,7-7,7H706.7c-3.8,0-7-3.1-7-7V-37.6c0-3.8,3.2-7,7-7h114.5c3.9,0,7,3.2,7,7V126.6z"
				/>
			<path class="st1" d="M828.3,126.6c0,3.8-3.1,7-7,7H706.7c-3.8,0-7-3.1-7-7V-37.6c0-3.8,3.2-7,7-7h114.5c3.9,0,7,3.2,7,7V126.6z"
				/>
		</g>
	</g>
	<line class="st2" x1="740.8" y1="-13.7" x2="787.2" y2="-13.7"/>
	<line class="st2" x1="728.3" y1="22.3" x2="799.7" y2="22.3"/>
	<line class="st2" x1="728.3" y1="44.5" x2="799.7" y2="44.5"/>
	<line class="st2" x1="728.3" y1="65.2" x2="799.7" y2="65.2"/>
	<line class="st2" x1="728.3" y1="84.4" x2="799.7" y2="84.4"/>
	<line class="st2" x1="728.3" y1="104.9" x2="799.7" y2="104.9"/>
</g>
<g>
	<g>
		
			<image style="overflow:visible;opacity:0.33;" width="766" height="972" xlink:href="4C01E3AE9422A3D6.png"  transform="matrix(0.24 0 0 0.24 304.0727 461.0763)">
		</image>
		<g>
			<path class="st0" d="M460.3,645.8c0,3.8-3.1,7-7,7H338.7c-3.9,0-7-3.2-7-7V481.6c0-3.8,3.1-7,7-7h114.5c3.9,0,7,3.2,7,7V645.8z"
				/>
			<path class="st1" d="M460.3,645.8c0,3.8-3.1,7-7,7H338.7c-3.9,0-7-3.2-7-7V481.6c0-3.8,3.1-7,7-7h114.5c3.9,0,7,3.2,7,7V645.8z"
				/>
		</g>
	</g>
	<line class="st2" x1="372.8" y1="505.5" x2="419.2" y2="505.5"/>
	<line class="st2" x1="360.3" y1="541.5" x2="431.7" y2="541.5"/>
	<line class="st2" x1="360.3" y1="563.7" x2="431.7" y2="563.7"/>
	<line class="st2" x1="360.3" y1="584.3" x2="431.7" y2="584.3"/>
	<line class="st2" x1="360.3" y1="603.5" x2="431.7" y2="603.5"/>
	<line class="st2" x1="360.3" y1="624" x2="431.7" y2="624"/>
</g>
<g>
	<g>
		
			<image style="overflow:visible;opacity:0.33;" width="766" height="972" xlink:href="4C01E3AE9422A3D3.png"  transform="matrix(0.24 0 0 0.24 500.1766 383.9555)">
		</image>
		<g>
			<path class="st0" d="M656.4,568.7c0,3.8-3.2,7-7,7H534.8c-3.9,0-7-3.2-7-7V404.5c0-3.9,3.1-7,7-7h114.5c3.8,0,7,3.1,7,7V568.7z"
				/>
			<path class="st1" d="M656.4,568.7c0,3.8-3.2,7-7,7H534.8c-3.9,0-7-3.2-7-7V404.5c0-3.9,3.1-7,7-7h114.5c3.8,0,7,3.1,7,7V568.7z"
				/>
		</g>
	</g>
	<line class="st2" x1="568.9" y1="428.4" x2="615.3" y2="428.4"/>
	<line class="st2" x1="556.4" y1="464.3" x2="627.8" y2="464.3"/>
	<line class="st2" x1="556.4" y1="486.6" x2="627.8" y2="486.6"/>
	<line class="st2" x1="556.4" y1="507.2" x2="627.8" y2="507.2"/>
	<line class="st2" x1="556.4" y1="526.4" x2="627.8" y2="526.4"/>
	<line class="st2" x1="556.4" y1="546.9" x2="627.8" y2="546.9"/>
</g>
<g>
	<g>
		
			<image style="overflow:visible;opacity:0.33;" width="766" height="972" xlink:href="4C01E3AE9422A3DE.png"  transform="matrix(0.24 0 0 0.24 296.1402 -35.8531)">
		</image>
		<g>
			<path class="st0" d="M452.3,148.9c0,3.9-3.1,7-7,7H330.8c-3.9,0-7-3.1-7-7V-15.3c0-3.9,3.1-7,7-7h114.5c3.9,0,7,3.1,7,7V148.9z"
				/>
			<path class="st1" d="M452.3,148.9c0,3.9-3.1,7-7,7H330.8c-3.9,0-7-3.1-7-7V-15.3c0-3.9,3.1-7,7-7h114.5c3.9,0,7,3.1,7,7V148.9z"
				/>
		</g>
	</g>
	<line class="st2" x1="364.8" y1="8.6" x2="411.3" y2="8.6"/>
	<line class="st2" x1="352.4" y1="44.5" x2="423.8" y2="44.5"/>
	<line class="st2" x1="352.4" y1="66.8" x2="423.8" y2="66.8"/>
	<line class="st2" x1="352.4" y1="87.4" x2="423.8" y2="87.4"/>
	<line class="st2" x1="352.4" y1="106.6" x2="423.8" y2="106.6"/>
	<line class="st2" x1="352.4" y1="127.1" x2="423.8" y2="127.1"/>
</g>
<g>
	<g>
		
			<image style="overflow:visible;opacity:0.33;" width="766" height="972" xlink:href="4C01E3AE9422A3DF.png"  transform="matrix(0.24 0 0 0.24 500.1766 100.8601)">
		</image>
		<g>
			<path class="st0" d="M656.4,285.6c0,3.9-3.2,7-7,7H534.8c-3.9,0-7-3.1-7-7V121.4c0-3.8,3.1-7,7-7h114.5c3.8,0,7,3.2,7,7V285.6z"
				/>
			<path class="st1" d="M656.4,285.6c0,3.9-3.2,7-7,7H534.8c-3.9,0-7-3.1-7-7V121.4c0-3.8,3.1-7,7-7h114.5c3.8,0,7,3.2,7,7V285.6z"
				/>
		</g>
	</g>
	<line class="st2" x1="568.9" y1="145.3" x2="615.3" y2="145.3"/>
	<line class="st2" x1="556.4" y1="181.3" x2="627.8" y2="181.3"/>
	<line class="st2" x1="556.4" y1="203.5" x2="627.8" y2="203.5"/>
	<line class="st2" x1="556.4" y1="224.1" x2="627.8" y2="224.1"/>
	<line class="st2" x1="556.4" y1="243.3" x2="627.8" y2="243.3"/>
	<line class="st2" x1="556.4" y1="263.8" x2="627.8" y2="263.8"/>
</g>
<g>
	<g>
		
			<image style="overflow:visible;opacity:0.33;" width="765" height="972" xlink:href="4C01E3AE9422A3D4.png"  transform="matrix(0.24 0 0 0.24 296.306 226.3371)">
		</image>
		<g>
			<path class="st0" d="M452.3,411.1c0,3.8-3.1,7-7,7H330.8c-3.9,0-7-3.2-7-7V246.9c0-3.9,3.1-7,7-7h114.5c3.9,0,7,3.1,7,7V411.1z"
				/>
			<path class="st1" d="M452.3,411.1c0,3.8-3.1,7-7,7H330.8c-3.9,0-7-3.2-7-7V246.9c0-3.9,3.1-7,7-7h114.5c3.9,0,7,3.1,7,7V411.1z"
				/>
		</g>
	</g>
	<line class="st2" x1="364.8" y1="270.8" x2="411.3" y2="270.8"/>
	<line class="st2" x1="352.4" y1="306.7" x2="423.8" y2="306.7"/>
	<line class="st2" x1="352.4" y1="329" x2="423.8" y2="329"/>
	<line class="st2" x1="352.4" y1="349.6" x2="423.8" y2="349.6"/>
	<line class="st2" x1="352.4" y1="368.8" x2="423.8" y2="368.8"/>
	<line class="st2" x1="352.4" y1="389.3" x2="423.8" y2="389.3"/>
</g>
<g>
	<g>
		
			<image style="overflow:visible;opacity:0.33;" width="765" height="972" xlink:href="4C01E3AE9422A3D5.png"  transform="matrix(0.24 0 0 0.24 672.24 226.3371)">
		</image>
		<g>
			<path class="st0" d="M828.3,411.1c0,3.8-3.1,7-7,7H706.7c-3.8,0-7-3.2-7-7V246.9c0-3.9,3.2-7,7-7h114.5c3.9,0,7,3.1,7,7V411.1z"
				/>
			<path class="st1" d="M828.3,411.1c0,3.8-3.1,7-7,7H706.7c-3.8,0-7-3.2-7-7V246.9c0-3.9,3.2-7,7-7h114.5c3.9,0,7,3.1,7,7V411.1z"
				/>
		</g>
	</g>
	<line class="st2" x1="740.8" y1="270.8" x2="787.2" y2="270.8"/>
	<line class="st2" x1="728.3" y1="306.7" x2="799.7" y2="306.7"/>
	<line class="st2" x1="728.3" y1="329" x2="799.7" y2="329"/>
	<line class="st2" x1="728.3" y1="349.6" x2="799.7" y2="349.6"/>
	<line class="st2" x1="728.3" y1="368.8" x2="799.7" y2="368.8"/>
	<line class="st2" x1="728.3" y1="389.3" x2="799.7" y2="389.3"/>
</g>
</svg>
